{
  "accessors": [
    {
      "bufferView": 2,
      "componentType": 5126,
      "count": 1344,
      "max": [
        38.25698471069336,
        15.345669746398926,
        4.49045467376709
      ],
      "min": [
        -38.466552734375,
        0.09440326690673828,
        -4.490455627441406
      ],
      "type": "VEC3"
    },
    {
      "bufferView": 2,
      "byteOffset": 16128,
      "componentType": 5126,
      "count": 1344,
      "max": [
        1.0,
        1.0,
        1.0
      ],
      "min": [
        -1.0,
        -1.0,
        -1.0
      ],
      "type": "VEC3"
    },
    {
      "bufferView": 1,
      "componentType": 5126,
      "count": 1344,
      "max": [
        0.9500000476837158,
        0.6633332967758179
      ],
      "min": [
        0.11000002920627594,
        0.20666664838790894
      ],
      "type": "VEC2"
    },
    {
      "bufferView": 0,
      "componentType": 5125,
      "count": 2052,
      "type": "SCALAR"
    },
    {
      "bufferView": 2,
      "byteOffset": 32256,
      "componentType": 5126,
      "count": 212,
      "max": [
        1.319186806678772,
        1.0000001192092896,
        7.700725555419922
      ],
      "min": [
        -1.3191893100738525,
        -1.0000001192092896,
        -4.857629299163818
      ],
      "type": "VEC3"
    },
    {
      "bufferView": 2,
      "byteOffset": 34800,
      "componentType": 5126,
      "count": 212,
      "max": [
        1.0,
        1.0,
        1.0
      ],
      "min": [
        -1.0,
        -1.0,
        -1.0
      ],
      "type": "VEC3"
    },
    {
      "bufferView": 1,
      "byteOffset": 10752,
      "componentType": 5126,
      "count": 212,
      "max": [
        0.4891268014907837,
        0.5
      ],
      "min": [
        0.4891267716884613,
        0.5
      ],
      "type": "VEC2"
    },
    {
      "bufferView": 0,
      "byteOffset": 8208,
      "componentType": 5125,
      "count": 366,
      "type": "SCALAR"
    },
    {
      "bufferView": 2,
      "byteOffset": 37344,
      "componentType": 5126,
      "count": 212,
      "max": [
        1.319186806678772,
        1.0000001192092896,
        7.700725555419922
      ],
      "min": [
        -1.3191893100738525,
        -1.0000001192092896,
        -4.857629299163818
      ],
      "type": "VEC3"
    },
    {
      "bufferView": 2,
      "byteOffset": 39888,
      "componentType": 5126,
      "count": 212,
      "max": [
        1.0,
        1.0,
        1.0
      ],
      "min": [
        -1.0,
        -1.0,
        -1.0
      ],
      "type": "VEC3"
    },
    {
      "bufferView": 1,
      "byteOffset": 12448,
      "componentType": 5126,
      "count": 212,
      "max": [
        0.4891268014907837,
        0.5
      ],
      "min": [
        0.4891267716884613,
        0.5
      ],
      "type": "VEC2"
    },
    {
      "bufferView": 0,
      "byteOffset": 9672,
      "componentType": 5125,
      "count": 366,
      "type": "SCALAR"
    }
  ],
  "asset": {
    "extras": {
      "author": "Muyaya Concept (https://sketchfab.com/muyayaconcept)",
      "license": "CC-BY-4.0 (http://creativecommons.org/licenses/by/4.0/)",
      "source": "https://sketchfab.com/3d-models/stylized-low-poly-rowboat-with-paddles-f2c35c716f32474e96cce3625073e6b8",
      "title": "Stylized Low Poly Rowboat with Paddles"
    },
    "generator": "Sketchfab-17.14.0",
    "version": "2.0"
  },
  "bufferViews": [
    {
      "buffer": 0,
      "byteLength": 11136,
      "name": "floatBufferViews",
      "target": 34963
    },
    {
      "buffer": 0,
      "byteLength": 14144,
      "byteOffset": 11136,
      "byteStride": 8,
      "name": "floatBufferViews",
      "target": 34962
    },
    {
      "buffer": 0,
      "byteLength": 42432,
      "byteOffset": 25280,
      "byteStride": 12,
      "name": "floatBufferViews",
      "target": 34962
    }
  ],
  "buffers": [
    {
      "byteLength": 67712,
      "uri": "scene.bin"
    }
  ],
  "images": [
    {
      "uri": "textures/Boat_texture_baseColor.png"
    },
    {
      "uri": "textures/Paddle_texture_baseColor.png"
    }
  ],
  "materials": [
    {
      "doubleSided": true,
      "name": "Boat_texture",
      "pbrMetallicRoughness": {
        "baseColorTexture": {
          "index": 0
        },
        "metallicFactor": 0.0,
        "roughnessFactor": 0.8211145618000169
      }
    },
    {
      "doubleSided": true,
      "name": "Paddle_texture",
      "pbrMetallicRoughness": {
        "baseColorTexture": {
          "index": 1
        },
        "metallicFactor": 0.0,
        "roughnessFactor": 0.8211145618000169
      }
    }
  ],
  "meshes": [
    {
      "name": "Boat_Boat_texture_0",
      "primitives": [
        {
          "attributes": {
            "NORMAL": 1,
            "POSITION": 0,
            "TEXCOORD_0": 2
          },
          "indices": 3,
          "material": 0,
          "mode": 4
        }
      ]
    },
    {
      "name": "paddle_Paddle_texture_0",
      "primitives": [
        {
          "attributes": {
            "NORMAL": 5,
            "POSITION": 4,
            "TEXCOORD_0": 6
          },
          "indices": 7,
          "material": 1,
          "mode": 4
        }
      ]
    },
    {
      "name": "paddle.001_Paddle_texture_0",
      "primitives": [
        {
          "attributes": {
            "NORMAL": 9,
            "POSITION": 8,
            "TEXCOORD_0": 10
          },
          "indices": 11,
          "material": 1,
          "mode": 4
        }
      ]
    }
  ],
  "nodes": [
    {
      "children": [
        1
      ],
      "matrix": [
        1.0,
        0.0,
        0.0,
        0.0,
        0.0,
        2.220446049250313e-16,
        -1.0,
        0.0,
        0.0,
        1.0,
        2.220446049250313e-16,
        0.0,
        0.0,
        0.0,
        0.0,
        1.0
      ],
      "name": "Sketchfab_model"
    },
    {
      "children": [
        2
      ],
      "matrix": [
        0.009999999776482582,
        0.0,
        0.0,
        0.0,
        0.0,
        0.0,
        0.009999999776482582,
        0.0,
        0.0,
        -0.009999999776482582,
        0.0,
        0.0,
        0.0,
        0.0,
        0.0,
        1.0
      ],
      "name": "Wooden_boat.fbx"
    },
    {
      "children": [
        3,
        5,
        7
      ],
      "name": "RootNode"
    },
    {
      "children": [
        4
      ],
      "matrix": [
        13.55866813659668,
        0.0,
        0.0,
        0.0,
        0.0,
        13.558668136596665,
        5.926682075697989e-07,
        0.0,
        0.0,
        -1.8181730814512186e-06,
        41.59495162963863,
        0.0,
        1.4901161193847656e-06,
        -1.1920928955078125e-05,
        0.0,
        1.0
      ],
      "name": "Boat"
    },
    {
      "mesh": 0,
      "name": "Boat_Boat_texture_0"
    },
    {
      "children": [
        6
      ],
      "matrix": [
        4.674052715301514,
        3.7279643105800044e-16,
        -6.926591722270276e-17,
        0.0,
        1.9819877594846728e-15,
        -29.180270267817097,
        -23.307066577142837,
        0.0,
        -2.2913711238718644e-15,
        23.307066577142837,
        -29.180270267817097,
        0.0,
        -121.46947479248047,
        122.31144714355469,
        280.7762145996094,
        1.0
      ],
      "name": "paddle"
    },
    {
      "mesh": 1,
      "name": "paddle_Paddle_texture_0"
    },
    {
      "children": [
        8
      ],
      "matrix": [
        -4.674052715301316,
        4.0861868132471717e-07,
        -1.3000497563939662e-06,
        0.0,
        -9.033690837196408e-06,
        -29.18027239787602,
        23.30706391032325,
        0.0,
        -6.078687176284508e-06,
        23.30706391032478,
        29.180272397875562,
        0.0,
        -121.46947479248047,
        122.31144714355469,
        -279.2237854003906,
        1.0
      ],
      "name": "paddle.001"
    },
    {
      "mesh": 2,
      "name": "paddle.001_Paddle_texture_0"
    }
  ],
  "samplers": [
    {
      "magFilter": 9729,
      "minFilter": 9987,
      "wrapS": 10497,
      "wrapT": 10497
    }
  ],
  "scene": 0,
  "scenes": [
    {
      "name": "Sketchfab_Scene",
      "nodes": [
        0
      ]
    }
  ],
  "textures": [
    {
      "sampler": 0,
      "source": 0
    },
    {
      "sampler": 0,
      "source": 1
    }
  ]
}
